HIERARCHY
ROOT hip
{
  OFFSET 0 0 0
  CHANNELS 6 Xposition Yposition Zposition Zrotation Yrotation Xrotation
  JOINT abdomen
  {
    OFFSET 0 20.6881 -0.73152
    CHANNELS 3 Zrotation Xrotation Yrotation
    JOINT chest
    {
      OFFSET 0 11.7043 -0.48768
      CHANNELS 3 Zrotation Xrotation Yrotation
      JOINT neck
      {
        OFFSET 0 22.1894 -2.19456
        CHANNELS 3 Zrotation Xrotation Yrotation
        JOINT head
        {
          OFFSET -0.24384 7.07133 1.2192
          CHANNELS 3 Zrotation Xrotation Yrotation
          JOINT leftEye
          {
            OFFSET 4.14528 8.04674 8.04672
            CHANNELS 3 Zrotation Xrotation Yrotation
            End Site
            {
              OFFSET 1 0 0
            }
          }
          JOINT rightEye
          {
            OFFSET -3.6576 8.04674 8.04672
            CHANNELS 3 Zrotation Xrotation Yrotation
            End Site
            {
              OFFSET 1 0 0
            }
          }
        }
      }
      JOINT rCollar
      {
        OFFSET -2.68224 19.2634 -4.8768
        CHANNELS 3 Zrotation Xrotation Yrotation
        JOINT rShldr
        {
          OFFSET -8.77824 -1.95073 1.46304
          CHANNELS 3 Zrotation Xrotation Yrotation
          JOINT rForeArm
          {
            OFFSET -28.1742 -1.7115 0.48768
            CHANNELS 3 Zrotation Xrotation Yrotation
            JOINT rHand
            {
              OFFSET -22.5879 0.773209 7.07136
              CHANNELS 3 Zrotation Xrotation Yrotation
              JOINT rThumb1
              {
                OFFSET -1.2192 -0.487915 3.41376
                CHANNELS 3 Zrotation Xrotation Yrotation
                JOINT rThumb2
                {
                  OFFSET -3.37035 -0.52449 3.41376
                  CHANNELS 3 Zrotation Xrotation Yrotation
                  End Site
                  {
                    OFFSET -1.78271 -1.18214 1.43049
                  }
                }
              }
              JOINT rIndex1
              {
                OFFSET -7.75947 0.938293 5.60832
                CHANNELS 3 Zrotation Xrotation Yrotation
                JOINT rIndex2
                {
                  OFFSET -2.54057 -0.884171 1.56538
                  CHANNELS 3 Zrotation Xrotation Yrotation
                  End Site
                  {
                    OFFSET -1.62519 -0.234802 1.16502
                  }
                }
              }
              JOINT rMid1
              {
                OFFSET -8.24714 1.18213 3.41376
                CHANNELS 3 Zrotation Xrotation Yrotation
                JOINT rMid2
                {
                  OFFSET -3.10165 -0.590103 1.0647
                  CHANNELS 3 Zrotation Xrotation Yrotation
                  End Site
                  {
                    OFFSET -2.48547 -0.328903 0.83742
                  }
                }
              }
              JOINT rRing1
              {
                OFFSET -8.82822 0.546677 1.51678
                CHANNELS 3 Zrotation Xrotation Yrotation
                JOINT rRing2
                {
                  OFFSET -2.60934 -0.819778 -0.0198488
                  CHANNELS 3 Zrotation Xrotation Yrotation
                  End Site
                  {
                    OFFSET -2.33842 -0.294052 0.168128
                  }
                }
              }
              JOINT rPinky1
              {
                OFFSET -8.27202 -0.0477905 -0.4584
                CHANNELS 3 Zrotation Xrotation Yrotation
                JOINT rPinky2
                {
                  OFFSET -1.82734 -0.647385 -0.700984
                  CHANNELS 3 Zrotation Xrotation Yrotation
                  End Site
                  {
                    OFFSET -1.69225 -0.51767 -0.607171
                  }
                }
              }
            }
          }
        }
      }
      JOINT lCollar
      {
        OFFSET 2.68224 19.2634 -4.8768
        CHANNELS 3 Zrotation Xrotation Yrotation
        JOINT lShldr
        {
          OFFSET 8.77824 -1.95073 1.46304
          CHANNELS 3 Zrotation Xrotation Yrotation
          JOINT lForeArm
          {
            OFFSET 28.1742 -1.7115 0.48768
            CHANNELS 3 Zrotation Xrotation Yrotation
            JOINT lHand
            {
              OFFSET 22.5879 0.773209 7.07136
              CHANNELS 3 Zrotation Xrotation Yrotation
              JOINT lThumb1
              {
                OFFSET 1.2192 -0.487915 3.41376
                CHANNELS 3 Zrotation Xrotation Yrotation
                JOINT lThumb2
                {
                  OFFSET 3.37035 -0.52449 3.41376
                  CHANNELS 3 Zrotation Xrotation Yrotation
                  End Site
                  {
                    OFFSET 1.78271 -1.18214 1.43049
                  }
                }
              }
              JOINT lIndex1
              {
                OFFSET 7.75947 0.938293 5.60832
                CHANNELS 3 Zrotation Xrotation Yrotation
                JOINT lIndex2
                {
                  OFFSET 2.54057 -0.884171 1.56538
                  CHANNELS 3 Zrotation Xrotation Yrotation
                  End Site
                  {
                    OFFSET 1.62519 -0.234802 1.16502
                  }
                }
              }
              JOINT lMid1
              {
                OFFSET 8.24714 1.18213 3.41376
                CHANNELS 3 Zrotation Xrotation Yrotation
                JOINT lMid2
                {
                  OFFSET 3.10165 -0.590103 1.0647
                  CHANNELS 3 Zrotation Xrotation Yrotation
                  End Site
                  {
                    OFFSET 2.48547 -0.328903 0.83742
                  }
                }
              }
              JOINT lRing1
              {
                OFFSET 8.82822 0.546677 1.51678
                CHANNELS 3 Zrotation Xrotation Yrotation
                JOINT lRing2
                {
                  OFFSET 2.60934 -0.819778 -0.0198488
                  CHANNELS 3 Zrotation Xrotation Yrotation
                  End Site
                  {
                    OFFSET 2.33842 -0.294052 0.168128
                  }
                }
              }
              JOINT lPinky1
              {
                OFFSET 8.27202 -0.0477905 -0.4584
                CHANNELS 3 Zrotation Xrotation Yrotation
                JOINT lPinky2
                {
                  OFFSET 1.82734 -0.647385 -0.700984
                  CHANNELS 3 Zrotation Xrotation Yrotation
                  End Site
                  {
                    OFFSET 1.69225 -0.51767 -0.607171
                  }
                }
              }
            }
          }
        }
      }
    }
  }
  JOINT rButtock
  {
    OFFSET -8.77824 4.35084 1.2192
    CHANNELS 3 Zrotation Xrotation Yrotation
    JOINT rThigh
    {
      OFFSET 0 -1.70687 -2.19456
      CHANNELS 3 Zrotation Xrotation Yrotation
      JOINT rShin
      {
        OFFSET 0 -36.8199 0.73152
        CHANNELS 3 Zrotation Xrotation Yrotation
        JOINT rFoot
        {
          OFFSET 0.73152 -45.1104 -5.12064
          CHANNELS 3 Zrotation Xrotation Yrotation
          End Site
          {
            OFFSET -1.1221 -3.69964 12.103
          }
        }
      }
    }
  }
  JOINT lButtock
  {
    OFFSET 8.77824 4.35084 1.2192
    CHANNELS 3 Zrotation Xrotation Yrotation
    JOINT lThigh
    {
      OFFSET 0 -1.70687 -2.19456
      CHANNELS 3 Zrotation Xrotation Yrotation
      JOINT lShin
      {
        OFFSET 0 -36.8199 0.73152
        CHANNELS 3 Zrotation Xrotation Yrotation
        JOINT lFoot
        {
          OFFSET -0.73152 -45.1104 -5.12064
          CHANNELS 3 Zrotation Xrotation Yrotation
          End Site
          {
            OFFSET 1.1221 -3.69964 12.103
          }
        }
      }
    }
  }
}
MOTION
Frames:	7
Frame Time:	0.00833333
6.31037 79.2406 -4.59019 5.0608 -0.9649 8.8834 6.90079 23.1324 -5.338 2.38964 -12.7835 -0.788569 -13.3587 7.16046 -12.2572 18.6766 -2.24288 -21.4137 -0.0 0.0 0.0 -0.0 0.0 0.0 1.45985e-13 -1.94722e-13 1.71437e-13 2.73568 -52.0084 -10.0296 -25.3825 -21.9423 54.3403 -0.687768 22.8732 3.399 -1.14047e-09 2.01422e-09 4.81381e-10 -1.96193e-09 3.48477e-09 8.55238e-10 -1.14047e-09 2.01421e-09 4.81367e-10 7.73091 5.47488 0.417314 -1.14047e-09 2.01421e-09 4.81383e-10 2.90554 0.965183 0.102902 -1.14047e-09 2.01421e-09 4.81384e-10 10.2786 0.731801 0.0259123 -1.14048e-09 2.01422e-09 4.81395e-10 2.22167 -0.733487 -0.20892 1.45803e-13 -1.94747e-13 1.71321e-13 -160.936 76.0158 118.501 28.3607 -37.6512 -79.8069 1.8919 -35.8914 5.83716 1.63385e-09 2.89689e-10 -2.20597e-10 2.81822e-09 5.27408e-10 -3.2405e-10 1.63385e-09 2.89689e-10 -2.20593e-10 -7.73091 5.47488 -0.417314 1.63386e-09 2.89688e-10 -2.20602e-10 -2.90554 0.965183 -0.102902 1.63385e-09 2.89688e-10 -2.20605e-10 -10.2786 0.731801 -0.0259123 1.63386e-09 2.89687e-10 -2.20624e-10 -2.22167 -0.733487 0.20892 -2.03217e-16 0.0 -3.88251e-19 -12.0165 -32.728 7.10353 -0.313538 37.3346 0.638566 -2.96007 -8.41568 -11.1601 2.03217e-16 0.0 3.88251e-19 -5.3323 -32.0339 -0.399157 0.118256 34.1804 -0.687797 0.266734 -6.46254 0.015162
6.4006 79.1796 -4.69289 5.3265 -1.1165 8.9397 7.47673 23.3706 -5.46243 2.44682 -12.9064 -0.774321 -13.3361 7.12677 -12.2078 18.4776 -2.75177 -21.2366 -0.0 0.0 0.0 -0.0 0.0 0.0 1.55936e-13 -1.84457e-13 1.86062e-13 2.36534 -52.2278 -9.877 -25.4131 -22.0125 54.4547 -0.678433 22.727 3.37481 -1.24403e-09 2.06874e-09 5.12181e-10 -2.14046e-09 3.57926e-09 9.10302e-10 -1.24403e-09 2.06873e-09 5.12168e-10 7.73091 5.47488 0.417314 -1.24403e-09 2.06874e-09 5.12184e-10 2.90554 0.965183 0.102902 -1.24403e-09 2.06874e-09 5.12185e-10 10.2786 0.731801 0.0259123 -1.24404e-09 2.06874e-09 5.12197e-10 2.22167 -0.733487 -0.20892 1.55769e-13 -1.84488e-13 1.86013e-13 -160.527 75.903 117.889 28.3653 -37.588 -79.6986 1.87871 -35.786 5.81455 1.56897e-09 2.6758e-10 -1.78919e-10 2.70564e-09 4.87751e-10 -2.54496e-10 1.56896e-09 2.6758e-10 -1.78916e-10 -7.73091 5.47488 -0.417314 1.56897e-09 2.67578e-10 -1.78925e-10 -2.90554 0.965183 -0.102902 1.56897e-09 2.67577e-10 -1.78928e-10 -10.2786 0.731801 -0.0259123 1.56897e-09 2.67575e-10 -1.78948e-10 -2.22167 -0.733487 0.20892 -2.03217e-16 0.0 -3.88251e-19 -12.2568 -33.0417 7.02863 -0.31792 37.593 0.643872 -2.94133 -8.42443 -11.078 2.03217e-16 0.0 3.88251e-19 -5.50504 -32.249 -0.296323 0.120075 34.309 -0.693485 0.271067 -6.48242 0.0610216
6.49311 79.1171 -4.80761 5.5704 -1.2726 9.0514 8.04336 23.5891 -5.52619 2.48835 -13.04 -0.744654 -13.3358 7.12868 -12.1745 18.3476 -3.21564 -21.1008 -0.0 0.0 0.0 -0.0 0.0 0.0 1.48701e-13 -1.18559e-13 1.42129e-13 1.83776 -52.3841 -9.95083 -25.4471 -22.0907 54.5821 -0.671264 22.6142 3.35616 -1.12216e-09 1.60066e-09 4.57663e-10 -1.93096e-09 2.76873e-09 8.12524e-10 -1.12216e-09 1.60065e-09 4.57653e-10 7.73091 5.47488 0.417314 -1.12216e-09 1.60066e-09 4.57667e-10 2.90554 0.965183 0.102902 -1.12216e-09 1.60066e-09 4.57666e-10 10.2786 0.731801 0.0259123 -1.12217e-09 1.60066e-09 4.57677e-10 2.22167 -0.733487 -0.20892 1.48542e-13 -1.18592e-13 1.42089e-13 -160.47 75.8189 117.656 28.3695 -37.5283 -79.5966 1.87614 -35.7652 5.81012 1.14324e-09 2.11711e-10 -2.73527e-11 1.96893e-09 3.83695e-10 -7.4743e-12 1.14324e-09 2.11711e-10 -2.73495e-11 -7.73091 5.47488 -0.417314 1.14324e-09 2.11708e-10 -2.73593e-11 -2.90554 0.965183 -0.102902 1.14324e-09 2.11707e-10 -2.73624e-11 -10.2786 0.731801 -0.0259123 1.14325e-09 2.11705e-10 -2.73806e-11 -2.22167 -0.733487 0.20892 -2.03217e-16 0.0 -3.88251e-19 -12.5102 -33.3758 6.93544 -0.322139 37.8379 0.649039 -2.92125 -8.44545 -10.9806 2.03217e-16 0.0 3.88251e-19 -5.71381 -32.4754 -0.286265 0.121511 34.4215 -0.69902 0.280755 -6.50523 0.146719
6.55037 79.0737 -4.92196 5.6284 -1.3296 9.1271 8.61324 23.7946 -5.55204 2.51974 -13.1785 -0.704651 -13.3513 7.15853 -12.1516 18.2588 -3.65989 -20.9912 -0.0 0.0 0.0 -0.0 0.0 0.0 1.30086e-13 -1.07201e-14 5.90204e-14 1.19879 -52.4896 -10.179 -25.4827 -22.1731 54.7165 -0.665 22.5153 3.33983 -8.45731e-10 7.65488e-10 3.4604e-10 -1.45541e-09 1.32251e-09 6.12328e-10 -8.45727e-10 7.65489e-10 3.46035e-10 7.73091 5.47488 0.417314 -8.45731e-10 7.6549e-10 3.46046e-10 2.90554 0.965183 0.102902 -8.45727e-10 7.6549e-10 3.46043e-10 10.2786 0.731801 0.0259123 -8.45738e-10 7.65493e-10 3.4605e-10 2.22167 -0.733487 -0.20892 1.29933e-13 -1.07497e-14 5.89583e-14 -160.638 75.7544 117.661 28.3734 -37.4711 -79.4991 1.88056 -35.8004 5.81767 4.37495e-10 1.20779e-10 1.96673e-10 7.48223e-10 2.14392e-10 3.55102e-10 4.37489e-10 1.20779e-10 1.96677e-10 -7.73091 5.47488 -0.417314 4.37495e-10 1.20777e-10 1.96667e-10 -2.90554 0.965183 -0.102902 4.3749e-10 1.20775e-10 1.96664e-10 -10.2786 0.731801 -0.0259123 4.37498e-10 1.20774e-10 1.96648e-10 -2.22167 -0.733487 0.20892 -2.03217e-16 0.0 -3.88251e-19 -12.7661 -33.7198 6.83206 -0.32612 38.0655 0.653876 -2.89993 -8.47229 -10.8738 2.03217e-16 0.0 3.88251e-19 -5.94127 -32.7104 -0.338149 0.122677 34.5216 -0.704376 0.294709 -6.53166 0.264011
6.61584 79.0241 -5.04079 5.7424 -1.3858 9.2084 9.17707 24.0025 -5.57612 2.55936 -13.3236 -0.662224 -13.3675 7.17669 -12.13 18.1543 -4.07974 -20.8876 -0.0 0.0 0.0 -0.0 0.0 0.0 1.09783e-13 9.85096e-14 -2.69361e-14 0.53277 -52.595 -10.4417 -25.5176 -22.2545 54.8495 -0.658964 22.4196 3.32406 -5.10552e-10 -1.0541e-10 2.26254e-10 -8.78403e-10 -1.85666e-10 3.96937e-10 -5.10548e-10 -1.05407e-10 2.26252e-10 7.73091 5.47488 0.417314 -5.10553e-10 -1.05407e-10 2.26261e-10 2.90554 0.965183 0.102902 -5.10547e-10 -1.05407e-10 2.26255e-10 10.2786 0.731801 0.0259123 -5.10558e-10 -1.05405e-10 2.26259e-10 2.22167 -0.733487 -0.20892 1.09633e-13 9.8485e-14 -2.70394e-14 -160.899 75.6929 117.756 28.3773 -37.4123 -79.3984 1.88535 -35.8385 5.82586 -2.85235e-10 2.26037e-11 3.85929e-10 -5.00869e-10 3.26434e-11 6.57154e-10 -2.85239e-10 2.26039e-11 3.85934e-10 -7.73091 5.47488 -0.417314 -2.85234e-10 2.26019e-11 3.85925e-10 -2.90554 0.965183 -0.102902 -2.8524e-10 2.26004e-11 3.85922e-10 -10.2786 0.731801 -0.0259123 -2.8523e-10 2.25994e-11 3.85908e-10 -2.22167 -0.733487 0.20892 -2.03217e-16 0.0 -3.88251e-19 -13.0302 -34.0735 6.72237 -0.32988 38.2754 0.6582 -2.87771 -8.48613 -10.7732 2.03217e-16 0.0 3.88251e-19 -6.18983 -32.9552 -0.431651 0.123514 34.6064 -0.709459 0.312482 -6.54891 0.403568
6.70459 78.9715 -5.18465 5.9853 -1.4697 9.37 9.72618 24.2279 -5.63486 2.62548 -13.4771 -0.625296 -13.3691 7.14352 -12.1001 17.9779 -4.47062 -20.7695 -0.0 0.0 0.0 -0.0 0.0 0.0 9.74786e-14 1.68578e-13 -7.94145e-14 -0.0755176 -52.7517 -10.6187 -25.5497 -22.3299 54.9729 -0.652506 22.3168 3.30712 -2.12424e-10 -6.80683e-10 1.47244e-10 -3.6454e-10 -1.18208e-09 2.53576e-10 -2.1242e-10 -6.80678e-10 1.47244e-10 7.73091 5.47488 0.417314 -2.12426e-10 -6.80679e-10 1.4725e-10 2.90554 0.965183 0.102902 -2.12419e-10 -6.8068e-10 1.47244e-10 10.2786 0.731801 0.0259123 -2.12429e-10 -6.80678e-10 1.47247e-10 2.22167 -0.733487 -0.20892 9.73369e-14 1.6856e-13 -7.95636e-14 -161.125 75.6177 117.797 28.3815 -37.3471 -79.2866 1.88383 -35.8267 5.82331 -7.61897e-10 -5.4995e-11 4.33188e-10 -1.32274e-09 -1.0875e-10 7.22604e-10 -7.61902e-10 -5.4995e-11 4.33195e-10 -7.73091 5.47488 -0.417314 -7.61896e-10 -5.49966e-11 4.33185e-10 -2.90554 0.965183 -0.102902 -7.61904e-10 -5.4998e-11 4.33183e-10 -10.2786 0.731801 -0.0259123 -7.61892e-10 -5.49986e-11 4.33169e-10 -2.22167 -0.733487 0.20892 -2.03217e-16 0.0 -3.88251e-19 -13.3083 -34.4367 6.61033 -0.333432 38.4672 0.661827 -2.8551 -8.46814 -10.6947 2.03217e-16 0.0 3.88251e-19 -6.46154 -33.2109 -0.546257 0.123965 34.673 -0.714176 0.33348 -6.54418 0.556043
6.78048 78.9299 -5.33657 6.1995 -1.5033 9.5613 10.2495 24.4828 -5.72655 2.73521 -13.6417 -0.591605 -13.3665 7.04452 -12.064 17.7096 -4.82955 -20.636 -0.0 0.0 0.0 -0.0 0.0 0.0 9.56187e-14 1.77146e-13 -8.23306e-14 -0.617601 -52.988 -10.683 -25.5799 -22.401 55.0889 -0.645194 22.1996 3.28785 4.51925e-11 -8.06972e-10 1.1322e-10 8.04027e-11 -1.40114e-09 1.90098e-10 4.51956e-11 -8.06968e-10 1.13218e-10 7.73091 5.47488 0.417314 4.51913e-11 -8.06969e-10 1.13224e-10 2.90554 0.965183 0.102902 4.5197e-11 -8.06969e-10 1.1322e-10 10.2786 0.731801 0.0259123 4.51875e-11 -8.06968e-10 1.13225e-10 2.22167 -0.733487 -0.20892 9.54881e-14 1.77137e-13 -8.25395e-14 -161.345 75.5332 117.795 28.3863 -37.2703 -79.155 1.87209 -35.7336 5.80329 -8.42957e-10 -1.01385e-10 2.4869e-10 -1.45766e-09 -1.88731e-10 4.01624e-10 -8.42962e-10 -1.01385e-10 2.48697e-10 -7.73091 5.47488 -0.417314 -8.42956e-10 -1.01387e-10 2.48688e-10 -2.90554 0.965183 -0.102902 -8.42964e-10 -1.01388e-10 2.48686e-10 -10.2786 0.731801 -0.0259123 -8.42953e-10 -1.01388e-10 2.48671e-10 -2.22167 -0.733487 0.20892 -2.03217e-16 0.0 -3.88251e-19 -13.6068 -34.8073 6.50284 -0.336734 38.6376 0.664554 -2.83144 -8.40147 -10.6475 2.03217e-16 0.0 3.88251e-19 -6.76898 -33.4696 -0.685376 0.123807 34.7131 -0.71844 0.360093 -6.51187 0.734143
